<svg xmlns="http://www.w3.org/2000/svg" width="93" height="32" fill="none"><path fill="#F39433" d="M23.006 10.157c-.759-.657-1.735-.986-2.926-.986a5.08 5.08 0 0 0-1.624.253 3.49 3.49 0 0 0-1.327.8c-.379.364-.677.835-.892 1.412-.217.578-.326 1.276-.326 2.094v5.254c0 .014.006.026.006.04v2.142c0 .334-.396.603-.885.603s-.854-.252-.879-.571h-.03v-7.467c0-.816-.109-1.514-.326-2.093-.217-.578-.51-1.05-.879-1.413-.37-.364-.809-.63-1.313-.8a5.103 5.103 0 0 0-1.626-.253c-.578 0-1.142.08-1.637.24-.498.16-.93.418-1.301.773-.37.356-.654.81-.852 1.36-.199.55-.298 1.217-.298 2v5.421c.003.02.008.038.008.057v2.143c0 .334-.395.603-.883.603-.487 0-.854-.252-.879-.571h-.033v-8.48c0-.835.143-1.568.433-2.2.288-.63.69-1.159 1.206-1.585a5.16 5.16 0 0 1 1.814-.96 7.661 7.661 0 0 1 2.261-.32c1.155 0 2.194.23 3.114.692.92.462 1.643 1.174 2.166 2.134a5.245 5.245 0 0 1 2.152-2.107c.912-.48 1.927-.72 3.047-.72.795 0 1.534.103 2.22.307.277.083.535.187.781.305A13.243 13.243 0 0 0 12.69 3 13.25 13.25 0 0 0 2.603 7.62a.206.206 0 0 1 .004.013s-.045.042-.115.115c-.233.278-.45.564-.66.86A5.762 5.762 0 0 0 1 11.02v8.43c0 1.547.379 2.647 1.138 3.306.758.657 1.734.986 2.926.986.578 0 1.12-.084 1.625-.253a3.475 3.475 0 0 0 1.327-.8c.379-.364.677-.837.894-1.414.217-.579.324-1.277.324-2.093v-7.467h.036c.082-.275.438-.48.865-.48s.783.207.865.48h.02v7.466c0 .817.11 1.517.326 2.094.216.578.51 1.048.88 1.413.37.366.809.632 1.314.8.505.17 1.047.254 1.625.254.578 0 1.143-.08 1.638-.24.498-.16.93-.419 1.301-.773.37-.356.654-.809.853-1.36.2-.551.298-1.218.298-2v-7.654h.033c.084-.275.44-.48.866-.48.425 0 .783.207.865.48h.023v8.48c0 .835-.144 1.568-.432 2.201-.29.63-.691 1.16-1.206 1.585a5.205 5.205 0 0 1-1.815.96c-.695.213-1.449.32-2.262.32-1.155 0-2.194-.23-3.114-.693-.92-.462-1.643-1.174-2.166-2.133a5.242 5.242 0 0 1-2.152 2.106c-.912.48-1.929.72-3.048.72-.55 0-1.072-.052-1.571-.15A13.265 13.265 0 0 0 12.69 29c4.233 0 7.997-1.964 10.412-5.013a5.725 5.725 0 0 0 1.04-3.178v-7.344c0-1.547-.378-2.648-1.138-3.307l.002-.001Z"></path><path fill="#1A2141" d="M38.704 11.757c-1.128-.825-2.714-1.243-4.713-1.243-.968 0-1.757.085-2.338.254-.803.233-1.067.394-1.186.488a1.78 1.78 0 0 0-.41.42c-.13.188-.196.408-.196.655 0 .248.063.466.187.666.115.185.251.333.404.44l.24.167.216-.196c.122-.11.403-.296 1.056-.553.52-.206 1.22-.31 2.077-.31.557 0 1.097.05 1.608.149.482.093.915.268 1.287.518.361.243.657.583.88 1.006.194.372.305.843.33 1.401-.08-.01-.166-.017-.26-.028-.288-.033-.61-.061-.964-.085-.348-.025-.718-.049-1.108-.072-1.604-.099-2.978 0-3.982.262-.773.203-1.402.491-1.87.856-.48.375-.825.834-1.026 1.364a4.754 4.754 0 0 0-.29 1.693c0 .484.08.972.237 1.45.166.51.499.973.988 1.374.475.39 1.136.707 1.966.942.815.232 1.9.35 3.224.35 1.125 0 2.147-.045 3.038-.135.89-.088 1.58-.174 2.055-.255l.301-.05v-7.457c0-1.85-.59-3.22-1.751-4.069v-.002Zm-3.595 10.006c-1.53 0-2.625-.188-3.252-.558-.577-.342-.857-.864-.857-1.597 0-.43.078-.793.235-1.074.155-.279.373-.497.666-.664a3.376 3.376 0 0 1 1.129-.376 9.827 9.827 0 0 1 1.568-.115c1.191 0 2.102.047 2.703.139.406.062.673.105.848.137v3.847c-.162.034-.4.077-.745.136-.495.083-1.267.127-2.295.127v-.002ZM60.176 11.71a4.892 4.892 0 0 0-1.732-.905 7.346 7.346 0 0 0-2.097-.291c-1.062 0-2.04.231-2.906.688a5.04 5.04 0 0 0-1.757 1.527 4.762 4.762 0 0 0-1.786-1.555c-.873-.44-1.87-.661-2.958-.661-.765 0-1.484.102-2.138.304a5.032 5.032 0 0 0-1.755.929 4.323 4.323 0 0 0-1.178 1.551c-.28.61-.422 1.324-.422 2.12v7.97h2.33V16.16c0-.658.083-1.221.246-1.675.158-.44.386-.805.676-1.085a2.639 2.639 0 0 1 1.026-.61c.8-.257 1.855-.27 2.7.01.4.135.75.347 1.04.632.293.29.53.674.705 1.14.179.478.27 1.068.27 1.755v7.06h2.329v-7.06c0-.688.09-1.279.27-1.756.174-.464.414-.848.713-1.136a2.79 2.79 0 0 1 1.054-.636 4.21 4.21 0 0 1 1.342-.208c.987 0 1.768.26 2.386.797.596.516.898 1.425.898 2.7v7.297h2.33v-8.04c0-.798-.143-1.508-.422-2.111a4.334 4.334 0 0 0-1.166-1.526l.002.003ZM64.248 6.756c-.424 0-.788.147-1.083.44-.297.291-.446.65-.446 1.065 0 .415.15.775.44 1.074a1.47 1.47 0 0 0 1.089.457c.425 0 .79-.152 1.096-.452.303-.299.457-.663.457-1.078 0-.415-.155-.777-.463-1.07a1.542 1.542 0 0 0-1.092-.435l.002-.001ZM64.871 10.924a1.934 1.934 0 0 0-.526-.075c-.415 0-.73.117-.94.348a1.188 1.188 0 0 0-.297.825v11.365h2.33V11.154l-.201-.1a2.346 2.346 0 0 0-.364-.13h-.002ZM88.153 21.163l-.172-.288-.302.147c-.228.111-.506.233-.827.36-.433.173-1.06.26-1.868.26-.64 0-1.253-.09-1.823-.27a3.995 3.995 0 0 1-1.449-.8c-.402-.352-.726-.82-.963-1.388-.24-.576-.36-1.28-.36-2.09 0-.812.109-1.47.327-2.041.215-.562.516-1.028.897-1.39.38-.36.838-.63 1.359-.804a5.625 5.625 0 0 1 1.768-.268c.836 0 1.535.12 2.078.353.321.14.603.281.835.423l.32.195.187-.32c.222-.383.475-.736.752-1.047l.191-.216-.173-.232a1.491 1.491 0 0 0-.32-.32c-.13-.11-.398-.275-1.22-.57-.645-.232-1.505-.344-2.627-.344-.977 0-1.894.147-2.724.44a6.01 6.01 0 0 0-2.173 1.31 6.132 6.132 0 0 0-1.42 2.121c-.34.828-.512 1.779-.512 2.827s.173 1.942.513 2.745c.342.81.82 1.503 1.423 2.061.603.56 1.33.99 2.16 1.274a8.17 8.17 0 0 0 2.66.428c1.036 0 1.893-.107 2.544-.318a10.184 10.184 0 0 0 1.584-.653l.41-.215-.311-.34a6.397 6.397 0 0 1-.767-1.034l.003.004Z"></path><path fill="#1A2141" d="m77.138 21.163-.17-.288-.302.147c-.23.112-.508.234-.827.36-.431.173-1.06.26-1.868.26-.64 0-1.253-.09-1.821-.27a3.995 3.995 0 0 1-1.45-.8c-.402-.353-.726-.82-.962-1.388-.24-.576-.362-1.28-.362-2.09 0-.812.112-1.47.33-2.041a3.726 3.726 0 0 1 .896-1.39c.38-.36.839-.63 1.36-.804a5.614 5.614 0 0 1 1.769-.268c.835 0 1.534.12 2.077.353.326.14.6.279.836.423l.319.195.186-.32c.224-.386.478-.737.753-1.047l.194-.216-.175-.232a1.483 1.483 0 0 0-.32-.319c-.132-.11-.398-.276-1.218-.57-.647-.232-1.505-.344-2.629-.344-.977 0-1.893.147-2.722.44a5.98 5.98 0 0 0-2.172 1.311 6.088 6.088 0 0 0-1.42 2.12c-.34.827-.513 1.778-.513 2.827 0 1.05.174 1.944.514 2.746a5.91 5.91 0 0 0 1.423 2.06c.602.56 1.33.99 2.16 1.275a8.164 8.164 0 0 0 2.659.427c1.038 0 1.894-.107 2.543-.318a10.04 10.04 0 0 0 1.584-.653l.41-.215-.312-.34a6.274 6.274 0 0 1-.767-1.034l-.003.003ZM92.071 10.925a1.883 1.883 0 0 0-.527-.074c-.413 0-.73.116-.94.347a1.19 1.19 0 0 0-.298.825V23.39h2.33V11.155l-.2-.099a2.308 2.308 0 0 0-.363-.13h-.002ZM91.447 9.79c.422 0 .79-.151 1.096-.451.303-.3.457-.663.457-1.078a1.43 1.43 0 0 0-.463-1.07 1.532 1.532 0 0 0-1.09-.435c-.42 0-.788.147-1.083.44a1.45 1.45 0 0 0-.446 1.065c0 .415.148.775.442 1.074a1.47 1.47 0 0 0 1.087.457V9.79Z"></path></svg>